<?xml version="1.0" encoding="UTF-8"?>
<svg width="282px" height="122px" viewBox="0 0 282 122" version="1.1" xmlns="http://www.w3.org/2000/svg" xmlns:xlink="http://www.w3.org/1999/xlink">
    <!-- Generator: Sketch 51.3 (57544) - http://www.bohemiancoding.com/sketch -->
    <title>Group</title>
    <desc>Created with Sketch.</desc>
    <defs>
        <path d="M122,61 C122,94.6893715 94.6893715,122 61,122 C27.3106308,122 0,94.6893715 0,61 C0,27.3106285 27.3106308,0 61,0 C94.6893715,0 122,27.3106285 122,61 Z" id="path-1"></path>
    </defs>
    <g id="Page-1" stroke="none" stroke-width="1" fill="none" fill-rule="evenodd">
        <g id="Desktop" transform="translate(-69.000000, -90.000000)">
            <g id="Group" transform="translate(69.000000, 90.000000)">
                <path d="M138.304114,50.4545466 C135.695473,50.4545466 133.178361,52.045455 131.576565,55.0454543 L131.576565,51.0909097 L127,51.0909097 L127,74.8181818 L131.576565,74.8181818 L131.576565,63.818182 C131.576565,57.1818189 134.551331,55.2272719 138.395645,55.2272719 C138.716004,55.2272719 139.127896,55.2272719 139.81438,55.2727275 L139.81438,50.5454551 C139.402489,50.5 138.76177,50.4545466 138.304114,50.4545466 Z M164.182079,49.4090916 C161.481906,49.4090916 159.376686,50.2272751 158.09525,51.8181812 C156.539217,50.9545449 154.525529,50.4545466 152.00842,50.4545466 C145.463932,50.4545466 142.214573,54.0909083 142.214573,58.4090892 C142.214573,60.7272737 143.312948,62.545456 145.006276,63.818182 C143.312948,65.0000013 142.626463,66.4090898 142.626463,67.727271 C142.626463,69.4999998 143.358713,70.7272747 144.914745,71.7272713 C142.717994,72.9090905 141.482322,74.4545455 141.482322,76.545455 C141.482322,80.0909076 144.502854,83 152.511841,83 C159.651282,83 163.815955,80.0454525 163.815955,75.7727272 C163.815955,72.0909076 161.34461,69.0000016 154.479764,69.0000016 L149.720138,69.0000016 C147.477621,69.0000016 146.65384,68.2272738 146.65384,66.7727256 C146.65384,66.2727273 146.974198,65.636362 147.38609,65.0909081 C148.804824,65.6818177 150.498154,65.9545467 152.099949,65.9545467 C158.09525,65.9545467 161.939564,62.9545457 161.939564,58.4090892 C161.939564,56.7272718 161.481906,55.2727275 160.61236,53.9999992 C161.619206,53.5454544 162.534518,53.4545453 164.182079,53.4545453 L164.182079,49.4090916 Z M152.099949,53.9090924 C155.715436,53.9090924 157.454531,55.5909105 157.454531,58.3181824 C157.454531,60.9545453 155.532374,62.545456 152.00842,62.545456 C148.484464,62.545456 146.745371,60.8181806 146.745371,58.3181824 C146.745371,55.5909105 148.575997,53.9090924 152.099949,53.9090924 Z M153.06103,72.6818172 C157.912187,72.6818172 159.330922,73.7272734 159.330922,75.9545454 C159.330922,78.0454543 157.088407,79.4545468 152.511841,79.4545468 C147.523387,79.4545468 145.738528,78.09091 145.738528,75.9090897 C145.738528,74.7272705 146.104653,73.8181808 147.935277,72.6818172 L153.06103,72.6818172 Z M175.839443,50.4545466 C170.072976,50.4545466 166.228661,52.7727271 166.091366,57.9545461 L170.530629,57.9545461 C170.622163,55.1363628 172.178195,54.0454549 175.702152,54.0454549 C179.592228,54.0454549 180.599073,55.0909094 180.599073,58.2727268 L180.599073,59.5454551 L174.64954,60.2727266 C167.921989,61.0909078 165.130287,63.9090911 165.130287,68.136363 C165.130287,72.3636366 168.105051,75.4545466 173.276569,75.4545466 C175.793681,75.4545466 178.768449,74.6363637 180.64484,72.2272741 C180.736369,73.0909087 180.919432,73.9999984 181.23979,74.8181818 L185.99942,74.8181818 C185.312933,73.1818194 185.175637,71.4545463 185.175637,69.6363623 L185.175637,57.9545461 C185.175637,53.2272743 182.658527,50.4545466 175.839443,50.4545466 Z M180.599073,62.9545457 L180.599073,65.909091 C180.599073,69.3181817 177.532775,71.5454537 174.146119,71.5454537 C171.079821,71.5454537 169.889913,69.9999981 169.889913,67.863638 C169.889913,65.2727263 171.67477,64.090907 175.976743,63.5454554 L180.599073,62.9545457 Z M202.534401,50.4545466 C199.925762,50.4545466 197.362879,51.5454545 195.532256,54.1818174 L195.532256,51.0909097 L190.955692,51.0909097 L190.955692,74.8181818 L195.532256,74.8181818 L195.532256,61.3181817 C195.532256,57.2272723 198.140904,54.3636378 201.573327,54.3636378 C205.326108,54.3636378 206.195649,57.0454541 206.195649,61.1363635 L206.195649,74.8181818 L210.772213,74.8181818 L210.772213,59.5909085 C210.772213,53.9090924 207.888982,50.4545466 202.534401,50.4545466 Z M226.359703,50.4545466 C218.99144,50.4545466 215.147126,55.6818173 215.147126,62.8636367 C215.147126,69.9545469 219.266032,75.4545466 226.68006,75.4545466 C231.393925,75.4545466 234.780581,73.4545444 236.885805,69.9999981 L233.087257,68.0000005 C231.988882,70.0454538 229.883659,71.5909088 226.817361,71.5909088 C222.46963,71.5909088 219.998282,68.9090902 219.86099,63.9090911 L237.114638,63.9090911 L237.114638,62.8636367 C237.114638,55.9090928 233.316082,50.4545466 226.359703,50.4545466 Z M226.313944,54.2272731 C229.837892,54.2272731 232.034649,56.3636354 232.355008,60.4090914 L219.906748,60.4090914 C220.272873,56.5000002 222.561155,54.2272731 226.313944,54.2272731 Z M246.12474,43 L241.548176,43 L241.548176,74.8181818 L246.12474,74.8181818 L246.12474,43 Z M256.716982,43 L252.140419,43 L252.140419,74.8181818 L256.716982,74.8181818 L256.716982,43 Z M271.840022,50.4545466 C266.07356,50.4545466 262.229245,52.7727271 262.091945,57.9545461 L266.531209,57.9545461 C266.622742,55.1363628 268.178775,54.0454549 271.702731,54.0454549 C275.592804,54.0454549 276.599653,55.0909094 276.599653,58.2727268 L276.599653,59.5454551 L270.650124,60.2727266 C263.922569,61.0909078 261.130862,63.9090911 261.130862,68.136363 C261.130862,72.3636366 264.105636,75.4545466 269.277149,75.4545466 C271.794265,75.4545466 274.76902,74.6363637 276.645411,72.2272741 C276.736945,73.0909087 276.920011,73.9999984 277.240369,74.8181818 L282,74.8181818 C281.313509,73.1818194 281.176217,71.4545463 281.176217,69.6363623 L281.176217,57.9545461 C281.176217,53.2272743 278.659111,50.4545466 271.840022,50.4545466 Z M276.599653,62.9545457 L276.599653,65.909091 C276.599653,69.3181817 273.533364,71.5454537 270.146699,71.5454537 C267.0804,71.5454537 265.890493,69.9999981 265.890493,67.863638 C265.890493,65.2727263 267.67535,64.090907 271.977314,63.5454554 L276.599653,62.9545457 Z" id="Fill-1" fill="#FFFFFF"></path>
                <mask id="mask-2" fill="white">
                    <use xlink:href="#path-1"></use>
                </mask>
                <g id="Clip-3"></g>
                <path d="M116.917031,60 C116.917031,90.8821273 91.8821273,115.917031 61,115.917031 L61,125 C96.8985083,125 126,95.8985083 126,60 L116.917031,60 Z M61,115.917031 C30.1178772,115.917031 5.08296943,90.8821273 5.08296943,60 L-4,60 C-4,95.8985083 25.1014917,125 61,125 L61,115.917031 Z M5.08296943,60 C5.08296943,29.1178727 30.1178772,4.08296943 61,4.08296943 L61,-5 C25.1014917,-5 -4,24.1014917 -4,60 L5.08296943,60 Z M61,4.08296943 C91.8821273,4.08296943 116.917031,29.1178727 116.917031,60 L126,60 C126,24.1014917 96.8985083,-5 61,-5 L61,4.08296943 Z" id="Fill-2" fill="#FFFFFF" mask="url(#mask-2)"></path>
            </g>
        </g>
    </g>
</svg>